<?xml version="1.0" encoding="UTF-8" standalone="no"?><!DOCTYPE svg PUBLIC "-//W3C//DTD SVG 1.1//EN" "http://www.w3.org/Graphics/SVG/1.1/DTD/svg11.dtd"><svg width="100%" height="100%" viewBox="0 0 750 750" version="1.1" xmlns="http://www.w3.org/2000/svg" xmlns:xlink="http://www.w3.org/1999/xlink" xml:space="preserve" xmlns:serif="http://www.serif.com/" style="fill-rule:evenodd;clip-rule:evenodd;stroke-linejoin:round;stroke-miterlimit:2;"><path d="M48.834,320.484c-0.147,0.809 -0.404,2.023 -0.772,3.642l-0,88.839c-0,5.591 -3.458,10.999 -10.374,16.222l-0.993,0c1.177,-1.618 2.465,-3.715 3.862,-6.29c1.03,-1.839 1.545,-3.458 1.545,-4.856l0,-75.265c-0.956,-0.662 -1.765,-0.993 -2.427,-0.993c-6.769,0 -12.765,3.274 -17.989,9.822c-4.488,5.591 -6.732,10.668 -6.732,15.23l0,42.708l1.104,4.084l-0,2.207l-7.394,-0l-0,-95.35l8.497,-0c-0.809,0.956 -1.287,1.582 -1.434,1.876c-0.442,0.662 -0.699,1.398 -0.773,2.207l0,27.7l0.773,0.331c2.722,-2.722 4.635,-4.561 5.738,-5.518c2.355,-2.133 4.451,-3.715 6.291,-4.745c5.076,-2.796 9.858,-4.525 14.346,-5.187l0,-13.022c0,-0.221 -0.147,-0.626 -0.441,-1.214c-0.589,-1.177 -0.956,-1.987 -1.104,-2.428l8.277,-0Z" style="fill:none;fill-rule:nonzero;stroke:#000;stroke-width:1.25px;"/><path d="M91.874,325.119c0,0.368 -0.11,0.828 -0.331,1.379c-0.221,0.552 -0.331,1.012 -0.331,1.38l0,83.762c0.147,0.442 0.239,1.159 0.276,2.152c0.037,0.993 0.092,1.637 0.166,1.931c-0.295,0 -0.589,0.037 -0.883,0.111c-2.575,0.294 -6.291,0.478 -11.147,0.552c-5.959,0.073 -11.44,-1.619 -16.443,-5.077c-6.695,-4.635 -10.079,-11.771 -10.153,-21.409c-0.074,-5.518 1.508,-14.678 4.745,-27.48c0.295,-1.177 2.833,-10.41 7.615,-27.7c0,-2.134 -0.625,-4.267 -1.876,-6.401c-0.294,-0.588 -1.582,-2.428 -3.863,-5.518l3.311,0c2.87,1.619 4.819,3.311 5.849,5.077c0.368,0.883 0.626,2.391 0.773,4.525l-11.036,44.364l-0,13.243c-0,4.561 1.913,9.454 5.739,14.678c4.414,5.959 9.343,8.975 14.788,9.049c2.133,0 3.715,-0.662 4.745,-1.986c1.03,-1.325 1.545,-3.09 1.545,-5.298l0,-79.237c0,-0.368 -0.11,-0.902 -0.331,-1.601c-0.221,-0.698 -0.331,-1.158 -0.331,-1.379c0.883,-0.221 1.582,-0.331 2.097,-0.331l3.862,-0c0.736,0.073 1.141,0.478 1.214,1.214Z" style="fill:none;fill-rule:nonzero;stroke:#000;stroke-width:1.25px;"/><path d="M140.543,410.095c-0.074,3.973 -1.104,8.056 -3.091,12.25c-2.354,4.709 -5.186,7.615 -8.497,8.718l-0,-1.103c1.03,-1.03 2.189,-2.851 3.476,-5.463c1.288,-2.612 1.931,-4.543 1.931,-5.794l0,-42.047c-0.441,-3.09 -0.956,-5.554 -1.545,-7.394c-1.839,-6.18 -4.561,-12.213 -8.166,-18.098c-1.913,-3.091 -4.341,-6.659 -7.284,-10.705c-5.003,-6.843 -8.645,-10.3 -10.925,-10.374c-1.545,-0.074 -2.502,1.104 -2.87,3.531l0,76.479c0,1.987 0.736,3.716 2.207,5.187l0,1.104l-8.276,-0c-0.074,-0.074 -0.148,-0.239 -0.221,-0.497c-0.074,-0.257 -0.147,-0.497 -0.221,-0.717c0,-0.074 0.019,-0.166 0.055,-0.276c0.037,-0.111 0.092,-0.203 0.166,-0.276c0.221,-0.662 0.405,-1.508 0.552,-2.538l-0,-83.652c-0,-1.693 0.441,-3.311 1.324,-4.856c0.956,-1.839 2.244,-2.759 3.863,-2.759c1.765,-0 3.862,1.287 6.29,3.862c2.06,2.208 5.592,6.953 10.594,14.237c3.09,4.561 6.585,9.564 10.485,15.009c1.471,2.133 2.685,3.605 3.641,4.414c0,-8.314 0.037,-14.972 0.111,-19.975l0.22,-12.691c0,-0.368 -0.147,-0.773 -0.441,-1.214c-0.441,-0.736 -0.92,-1.398 -1.435,-1.987l8.057,0c0.367,0.368 0.588,5.592 0.662,15.671c0.073,6.18 0.036,14.163 -0.111,23.948l-0.551,48.006Z" style="fill:none;fill-rule:nonzero;stroke:#000;stroke-width:1.25px;"/><path d="M203.778,334.941c-3.311,-5.003 -8.902,-7.578 -16.774,-7.725c-0.589,-0 -1.472,-0.037 -2.649,-0.111c-4.194,0 -6.29,1.251 -6.29,3.753l-0,81.113c-0,0.221 0.11,0.534 0.331,0.938c0.22,0.405 0.331,1.453 0.331,3.146l-8.498,0.331l-0.331,-0.773c1.251,-3.09 1.876,-4.929 1.876,-5.518l0,-79.237c0,-1.693 -0.993,-2.796 -2.98,-3.311c-0.956,-0.221 -2.244,-0.368 -3.862,-0.442c-0.809,0 -1.508,0.037 -2.097,0.111l-1.435,-0c-6.915,-0 -10.999,0.956 -12.249,2.869l-2.428,4.856c-0.074,-0.295 -0.129,-0.662 -0.166,-1.104c-0.037,-0.441 -0.092,-0.809 -0.165,-1.103c-0,-0.81 -0.037,-1.398 -0.111,-1.766c0,-4.488 1.508,-6.732 4.525,-6.732l46.351,-0c2.28,-0 3.973,1.177 5.076,3.531c0.736,3.164 1.251,5.077 1.545,5.739l0,1.435Z" style="fill:none;fill-rule:nonzero;stroke:#000;stroke-width:1.25px;"/><path d="M321.31,334.941c-3.31,-5.003 -8.902,-7.578 -16.774,-7.725c-0.589,-0 -1.472,-0.037 -2.649,-0.111c-4.193,0 -6.29,1.251 -6.29,3.753l-0,81.113c-0,0.221 0.11,0.534 0.331,0.938c0.221,0.405 0.331,1.453 0.331,3.146l-8.498,0.331l-0.331,-0.773c1.251,-3.09 1.876,-4.929 1.876,-5.518l0,-79.237c0,-1.693 -0.993,-2.796 -2.979,-3.311c-0.957,-0.221 -2.244,-0.368 -3.863,-0.442c-0.809,0 -1.508,0.037 -2.097,0.111l-1.434,-0c-6.916,-0 -11,0.956 -12.25,2.869l-2.428,4.856c-0.074,-0.295 -0.129,-0.662 -0.166,-1.104c-0.036,-0.441 -0.092,-0.809 -0.165,-1.103c-0,-0.81 -0.037,-1.398 -0.111,-1.766c0,-4.488 1.509,-6.732 4.525,-6.732l46.351,-0c2.281,-0 3.973,1.177 5.076,3.531c0.736,3.164 1.251,5.077 1.545,5.739l0,1.435Z" style="fill:none;fill-rule:nonzero;stroke:#000;stroke-width:1.25px;"/><path d="M366.116,320.484c-0.147,0.809 -0.405,2.023 -0.772,3.642l-0,88.839c-0,5.591 -3.458,10.999 -10.374,16.222l-0.993,0c1.177,-1.618 2.464,-3.715 3.862,-6.29c1.03,-1.839 1.545,-3.458 1.545,-4.856l0,-75.265c-0.956,-0.662 -1.766,-0.993 -2.428,-0.993c-6.768,0 -12.765,3.274 -17.988,9.822c-4.488,5.591 -6.732,10.668 -6.732,15.23l-0,42.708l1.104,4.084l-0,2.207l-7.395,-0l0,-95.35l8.498,-0c-0.809,0.956 -1.287,1.582 -1.435,1.876c-0.441,0.662 -0.698,1.398 -0.772,2.207l-0,27.7l0.772,0.331c2.723,-2.722 4.636,-4.561 5.739,-5.518c2.354,-2.133 4.451,-3.715 6.291,-4.745c5.076,-2.796 9.858,-4.525 14.346,-5.187l0,-13.022c0,-0.221 -0.147,-0.626 -0.441,-1.214c-0.589,-1.177 -0.957,-1.987 -1.104,-2.428l8.277,-0Z" style="fill:none;fill-rule:nonzero;stroke:#000;stroke-width:1.25px;"/><path d="M409.929,401.708c-0,3.237 -1.067,6.29 -3.201,9.16c-2.354,3.09 -5.076,4.635 -8.166,4.635l-28.363,-0l0,-1.766c1.693,-2.575 2.539,-5.555 2.539,-8.939l-0,-84.645l26.155,-0c2.575,-0 4.267,0.846 5.076,2.538c0.515,1.03 0.736,2.538 0.662,4.525l-0.22,5.076c-1.325,-3.016 -2.502,-5.187 -3.532,-6.511c-1.618,-1.986 -5.297,-2.98 -11.036,-2.98c-3.826,0 -6.474,0.368 -7.946,1.104c-2.207,1.103 -3.31,3.311 -3.31,6.621l-0,20.638l0.772,1.103c0.883,-0.588 2.538,-2.317 4.966,-5.187c3.605,-4.193 9.197,-7.394 16.775,-9.601l2.98,0c0.22,0.956 0.367,2.354 0.441,4.194c0.074,1.692 -0.074,3.016 -0.441,3.973c-2.87,-1.251 -5.187,-1.877 -6.953,-1.877c-5.444,-0.073 -10.006,2.907 -13.685,8.94c-3.237,5.223 -4.855,10.704 -4.855,16.443l-0,36.86c-0,4.046 2.979,6.106 8.939,6.18c7.063,0.074 12.544,-1.619 16.443,-5.077l5.629,-7.835c-0,0.221 0.036,0.57 0.11,1.048c0.073,0.479 0.147,0.938 0.221,1.38Z" style="fill:none;fill-rule:nonzero;stroke:#000;stroke-width:1.25px;"/><path d="M524.923,415.503l-34.322,-0c-4.341,-0 -8.571,-1.95 -12.691,-5.849c-5.15,-4.856 -7.762,-11.441 -7.836,-19.754c-0.073,-5.371 0.993,-11.367 3.201,-17.989l6.4,-19.313c2.06,-6.18 3.127,-11.661 3.201,-16.443c0.073,-3.826 -0.809,-7.137 -2.649,-9.933c-0.883,-1.397 -1.324,-2.685 -1.324,-3.862l2.538,-0c1.839,0.662 2.98,1.14 3.421,1.435c1.325,0.882 1.987,2.906 1.987,6.069c-0,1.545 -0.883,6.217 -2.649,14.016l-5.076,22.623c-1.913,8.976 -2.87,14.899 -2.87,17.768l0,11.036c0,3.973 1.784,7.836 5.353,11.588c3.568,3.752 7.302,5.665 11.201,5.738c1.766,0 3.017,-0.735 3.752,-2.207c0.515,-1.103 0.773,-2.612 0.773,-4.524l-0,-81.997l5.849,-0l-0,85.749c-0,1.324 0.368,2.17 1.103,2.538c0.736,0.368 2.465,0.589 5.187,0.662c2.87,0.074 4.801,-0.202 5.794,-0.828c0.993,-0.625 1.49,-2.041 1.49,-4.248l-0,-79.459c-0,-0.956 -0.331,-1.765 -0.993,-2.428c-0.883,-0.883 -1.398,-1.545 -1.545,-1.986l8.497,-0c0.442,0.515 0.663,1.324 0.663,2.428c-0,0.515 -0.111,1.324 -0.332,2.428c-0.22,1.103 -0.331,1.913 -0.331,2.428l0,80.23c0,1.251 0.736,2.612 2.208,4.084Z" style="fill:none;fill-rule:nonzero;stroke:#000;stroke-width:1.25px;"/><path d="M538.828,415.172l-1.104,0.772l-7.725,0l0,-94.688c1.692,0 3.053,-0.073 4.083,-0.22c0.883,-0 1.582,0.018 2.097,0.055c0.515,0.037 1.141,0.165 1.876,0.386l-1.103,5.849l-0,83.431c0.073,0.368 0.184,0.699 0.331,0.994c0.515,1.545 1.03,2.685 1.545,3.421Z" style="fill:none;fill-rule:nonzero;stroke:#000;stroke-width:1.25px;"/><path d="M601.07,334.941c-3.311,-5.003 -8.902,-7.578 -16.774,-7.725c-0.589,-0 -1.472,-0.037 -2.649,-0.111c-4.194,0 -6.29,1.251 -6.29,3.753l-0,81.113c-0,0.221 0.11,0.534 0.331,0.938c0.22,0.405 0.331,1.453 0.331,3.146l-8.498,0.331l-0.331,-0.773c1.251,-3.09 1.876,-4.929 1.876,-5.518l0,-79.237c0,-1.693 -0.993,-2.796 -2.98,-3.311c-0.956,-0.221 -2.244,-0.368 -3.862,-0.442c-0.809,0 -1.508,0.037 -2.097,0.111l-1.435,-0c-6.915,-0 -10.999,0.956 -12.249,2.869l-2.428,4.856c-0.074,-0.295 -0.129,-0.662 -0.166,-1.104c-0.037,-0.441 -0.092,-0.809 -0.165,-1.103c-0,-0.81 -0.037,-1.398 -0.111,-1.766c0,-4.488 1.508,-6.732 4.525,-6.732l46.351,-0c2.28,-0 3.973,1.177 5.076,3.531c0.736,3.164 1.251,5.077 1.545,5.739l0,1.435Z" style="fill:none;fill-rule:nonzero;stroke:#000;stroke-width:1.25px;"/><path d="M696.972,411.088c0,2.355 -0.809,3.532 -2.428,3.532c-5.003,-0 -9.233,0.073 -12.691,0.221l-20.417,0.772c-0.809,0 -1.839,0.037 -3.09,0.11c-6.915,0 -13.794,-1.213 -20.637,-3.641c-20.747,-7.358 -31.158,-22.366 -31.231,-45.027c-0.074,-13.39 4.506,-24.739 13.739,-34.045c9.234,-9.307 20.546,-13.998 33.936,-14.071c7.063,-0.074 14.604,1.765 22.623,5.518c9.123,4.193 14.899,9.417 17.327,15.671c-0.81,0.441 -2.281,0.883 -4.415,1.324c-0.515,-0 -0.993,0.074 -1.434,0.221c-0.662,-0 -1.472,-0.773 -2.428,-2.318c-2.943,-4.929 -7.137,-9.196 -12.581,-12.801c-4.782,-3.164 -11.11,-4.746 -18.982,-4.746c-11.992,0 -22.072,4.893 -30.238,14.678c-7.505,8.976 -11.294,19.055 -11.367,30.238c-0,5.297 1.324,11.11 3.973,17.437c3.826,9.123 9.675,16.112 17.547,20.968c7.651,4.709 16.554,7.1 26.707,7.173c7.651,0.074 14.162,-0.294 19.533,-1.103l16.333,-2.428c0,0.441 0.074,1.214 0.221,2.317Z" style="fill:none;fill-rule:nonzero;stroke:#000;stroke-width:1.25px;"/><path d="M741.336,320.484c-0.147,0.809 -0.404,2.023 -0.772,3.642l-0,88.839c-0,5.591 -3.458,10.999 -10.374,16.222l-0.993,0c1.177,-1.618 2.465,-3.715 3.862,-6.29c1.03,-1.839 1.545,-3.458 1.545,-4.856l0,-75.265c-0.956,-0.662 -1.765,-0.993 -2.427,-0.993c-6.769,0 -12.765,3.274 -17.989,9.822c-4.488,5.591 -6.732,10.668 -6.732,15.23l0,42.708l1.104,4.084l-0,2.207l-7.394,-0l-0,-95.35l8.497,-0c-0.809,0.956 -1.287,1.582 -1.434,1.876c-0.442,0.662 -0.699,1.398 -0.773,2.207l0,27.7l0.773,0.331c2.722,-2.722 4.635,-4.561 5.738,-5.518c2.355,-2.133 4.451,-3.715 6.291,-4.745c5.076,-2.796 9.858,-4.525 14.346,-5.187l0,-13.022c0,-0.221 -0.147,-0.626 -0.441,-1.214c-0.589,-1.177 -0.956,-1.987 -1.104,-2.428l8.277,-0Z" style="fill:none;fill-rule:nonzero;stroke:#000;stroke-width:1.25px;"/></svg>